<?xml version="1.0" encoding="utf-8"?>
<!-- Generator: Adobe Illustrator 23.0.4, SVG Export Plug-In . SVG Version: 6.00 Build 0)  -->
<svg version="1.1" id="Layer_1" xmlns="http://www.w3.org/2000/svg" xmlns:xlink="http://www.w3.org/1999/xlink" x="0px" y="0px"
	 viewBox="0 0 80 231.5" style="enable-background:new 0 0 80 231.5;" xml:space="preserve">
<g>
	<path style="fill:#141414;" d="M18,224.3v-5.7c0-5.3,4-9.3,28.3-9.3c24.3,0,28.3,4.1,28.3,9.3v5.7H18z M69.9,218.6
		c0-2-1.6-3.6-23.5-3.6c-21.9,0-23.5,1.6-23.5,3.6v0.4h47V218.6z"/>
	<path style="fill:#141414;" d="M18,206.5v-12.1h4.9v6.9h20.7v-5.7h4.9v5.7h21.5v-6.9h4.9v12.1H18z M13.6,203.7L5.5,198v-2.4h5.7
		l3.2,6.5v1.6H13.6z"/>
	<path style="fill:#141414;" d="M18,192.7v-5.3c0-4.9,4-8.9,17-8.9s17,4,17,8.9h22.7v5.3H18z M47.2,187.1c0-1.2-1.6-2.8-12.1-2.8
		s-12.1,1.6-12.1,2.8v0.4h24.3V187.1z"/>
	<path style="fill:#141414;" d="M18,176.1v-5.3h51.8V164h4.9v12.1H18z"/>
	<path style="fill:#141414;" d="M18,160.7v-8.9l56.7-3.6v5.3L62.2,154v4.5l12.6,0.6v5.3L18,160.7z M57.3,154.3l-32.8,1.6v0.8
		l32.8,1.6V154.3z"/>
	<path style="fill:#141414;" d="M52.1,132.8c0,0,3.2-1.2,9.3-1.2c10.9,0,14.2,3.2,14.2,6.9c0,4.9-3.6,8.5-29.2,8.5
		c-25.5,0-29.2-3.6-29.2-8.5c0-3.6,3.2-6.9,14.2-6.9c6.1,0,9.3,1.2,9.3,1.2v4.9c0,0-4.5-0.8-9.7-0.8c-8.5,0-9.3,0.8-9.3,1.6
		c0,1.2,1.6,2.8,24.7,2.8c23.1,0,24.7-1.6,24.7-2.8c0-0.8-0.8-1.6-9.3-1.6c-5.3,0-9.7,0.8-9.7,0.8V132.8z"/>
	<path style="fill:#141414;" d="M18,128.7v-12.1h4.9v6.9h20.7v-5.7h4.9v5.7h21.5v-6.9h4.9v12.1H18z M13.6,125.9l-8.1-5.7v-2.4h5.7
		l3.2,6.5v1.6H13.6z"/>
	<path style="fill:#141414;" d="M18,106.9v-7.3l22.3-2.8v-0.4L18,93.5v-7.3h56.7v5.7l-48.6-2v0.8l26.7,4v3.6l-26.7,4v0.8l48.6-2v5.7
		H18z"/>
	<path style="fill:#141414;" d="M18,81V72l56.7-3.6v5.3l-12.6,0.6v4.5l12.6,0.6v5.3L18,81z M57.3,74.5l-32.8,1.6v0.8l32.8,1.6V74.5z
		"/>
	<path style="fill:#141414;" d="M18,66.8v-5.3h56.7v5.3H18z"/>
	<path style="fill:#141414;" d="M55.3,53.4c0,0,3.2,0.4,6.5,0.4c8.1,0,9.3-1.2,9.3-2s-1.2-2-7.7-2c-13.4,0-19,9.3-33.2,9.3
		c-9.3,0-13-3.6-13-7.3s3.6-7.3,13-7.3c4,0,6.5,0.8,6.5,0.8v4.9c0,0-2.4-0.4-5.7-0.4c-8.1,0-9.3,1.2-9.3,2s1.2,2,7.7,2
		c13.4,0,19-9.3,33.2-9.3c9.3,0,13,3.6,13,7.3s-3.6,7.3-13,7.3c-4,0-7.3-0.8-7.3-0.8V53.4z"/>
	<path style="fill:#141414;" d="M46.4,42.9c-25.5,0-29.2-3.6-29.2-8.1c0-4.5,3.6-8.1,29.2-8.1c25.5,0,29.2,3.6,29.2,8.1
		C75.6,39.2,71.9,42.9,46.4,42.9z M46.4,32.4c-23.5,0-24.7,1.2-24.7,2.4s1.2,2.4,24.7,2.4c23.5,0,24.7-1.2,24.7-2.4
		S69.9,32.4,46.4,32.4z"/>
	<path style="fill:#141414;" d="M18,23.8v-6.5l48.6-5.7v-0.8L18,13.7V8.1h56.7v6.5l-48.6,5.7V21l48.6-2.8v5.7H18z"/>
</g>
</svg>
