<?xml version="1.0" encoding="utf-8"?>
<!-- Generator: Adobe Illustrator 23.0.4, SVG Export Plug-In . SVG Version: 6.00 Build 0)  -->
<svg version="1.1" id="Layer_1" xmlns="http://www.w3.org/2000/svg" xmlns:xlink="http://www.w3.org/1999/xlink" x="0px" y="0px"
	 viewBox="0 0 80 80" style="enable-background:new 0 0 80 80;" xml:space="preserve">
<g>
	<path style="fill:#DBCAB8;" d="M66.7,37.8c-0.2,0.1-0.3,0.2-0.5,0.3c-7.9-0.3-26.2-0.7-54.8-1.3c-2-2-3.1-3.3-3.5-3.8
		c-0.3-0.6-0.5-1.4-0.4-2.4c-0.1-0.2-0.9-1.2-2.4-3c-1.5-1.9-2.7-3.3-3.7-4.2c2-1.2,3.1-1.8,3.3-1.9c8.5-2.4,17.3-3.7,26.6-4
		c4.1-0.1,10.4,0,18.7,0.2c4.6,0,8.9,0.6,12.7,1.8c0.3,2.3,1.1,5.4,2.4,9.3c1.3,3.9,2.1,6.6,2.3,8.1C67.1,37.4,66.9,37.7,66.7,37.8z
		 M71.2,44.4c0.3,0.5,1.4,2.8,3.4,7c2,4.2,3.3,7.6,4,10.1L76,62c-7.9,0.1-14.7,0.2-20.6,0.3c-2.4,0.1-5.9,0.2-10.4,0.2
		c-4.5,0-7.3,0-8.4,0c-1.5,0-2.7,0.1-3.6,0.2c-5.4,0.4-9.1-1.4-10.9-5.3c0.4-0.4,1.1-1.3,2.3-2.6c0.2-0.1,0.3-0.3,0.3-0.5l0.5-0.3
		c-0.2,0.1-0.3,0.2-0.4,0.4c-0.1,0.2-0.2,0.3-0.4,0.4c-0.4-2.1-1.6-3.1-3.6-3c-0.2,0.1-1.2,0.2-3,0.2c0.3-2.7,0.5-4.2,0.6-4.4
		c4.3-2,12.8-3.5,25.5-4.2C56.6,42.5,65.7,42.9,71.2,44.4z"/>
</g>
</svg>
